PathFileType   4   (X/Y/Z)																																																																																																																							
DataRate	CameraRate	NumFrames	NumMarkers	Units	OrigDataRate	OrigDataStartFrame	OrigNumFrames																																																																																																																
120	120	5	39	mm	120	20	156																																																																																																																
Frame#	Time	Sternum	R.Acromium	L.Acromium	Top.Head	R.ASIS	L.ASIS	V.Sacral	R.Thigh.Upper	R.Thigh.Front	R.Thigh.Rear	R.Knee.Lat	R.Knee.Med	R.Shank.Upper	R.Shank.Front	R.Shank.Rear	R.Ankle.Lat	R.Ankle.Med	R.Heel	R.Midfoot.Sup	R.Midfoot.Lat	R.Toe.Lat	R.Toe.Med	R.Toe.Tip	L.Thigh.Upper	L.Thigh.Front	L.Thigh.Rear	L.Knee.Lat	L.Knee.Med	L.Shank.Upper	L.Shank.Front	L.Shank.Rear	L.Ankle.Lat	L.Ankle.Med	L.Heel	L.Midfoot.Sup	L.Midfoot.Lat	L.Toe.Lat	L.Toe.Med	L.Toe.Tip																																																																															
 	 	X1	Y1	Z1	X2	Y2	Z2	X3	Y3	Z3	X4	Y4	Z4	X5	Y5	Z5	X6	Y6	Z6	X7	Y7	Z7	X8	Y8	Z8	X9	Y9	Z9	X10	Y10	Z10	X11	Y11	Z11	X12	Y12	Z12	X13	Y13	Z13	X14	Y14	Z14	X15	Y15	Z15	X16	Y16	Z16	X17	Y17	Z17	X18	Y18	Z18	X19	Y19	Z19	X20	Y20	Z20	X21	Y21	Z21	X22	Y22	Z22	X23	Y23	Z23	X24	Y24	Z24	X25	Y25	Z25	X26	Y26	Z26	X27	Y27	Z27	X28	Y28	Z28	X29	Y29	Z29	X30	Y30	Z30	X31	Y31	Z31	X32	Y32	Z32	X33	Y33	Z33	X34	Y34	Z34	X35	Y35	Z35	X36	Y36	Z36	X37	Y37	Z37	X38	Y38	Z38	X39	Y39	Z39	
																																																																																																																							
	20	0.425	1631.791104	-0.000992919	1251.029799	1522.784888	-160.4625222	1372.878193	1527.060895	163.6853836	1386.127454	1632.45245	-9.995724821	1621.916908	1609.537674	-119.563877	909.8272416	1614.338141	121.1976851	901.6668246	1432.05709	-5.695750883	934.7147549	1593.260405	-151.852957	657.3689751	1650.921717	-72.89581202	618.2286696	1606.71966	-144.0380039	557.7181644	1590.232582	-128.7803171	481.3633717	1591.849354	-28.27664901	467.5552929	1551.357546	-139.9773559	426.0570339	1580.308663	-92.759033	360.3334221	1513.13241	-148.0192813	361.3378009	1351.828421	-126.2596959	173.5814445	1365.190667	-48.83628676	178.6262575	1294.115526	-81.79932302	202.4100092	1393.150038	-50.48617332	121.9320278	1377.67896	-145.6838404	112.4676625	1420.499563	-153.7519611	42.2460467	1429.999596	-57.55224411	49.21295635	1469.415579	-85.7250635	12.21292587	1556.219953	155.8898652	657.020061	1623.869666	93.1736068	628.386519	1556.026433	143.1256019	566.5526569	1543.621465	130.2344758	457.3517315	1544.580968	33.90932835	458.0281727	1538.361792	146.028905	387.6123714	1571.229449	97.96343807	340.0407481	1519.058499	155.397025	352.247532	1501.305317	125.837295	80.26848103	1507.208776	46.58044596	99.90933047	1430.917998	79.29350631	67.85434673	1583.831836	55.87355549	69.03392027	1567.521382	143.3687015	69.15450397	1623.488304	152.6622596	48.11997899	1638.60704	62.03409965	47.99025404	1682.2581	84.48225282	48.40385764
	21	0.43333	1637.280207	-0.000992919	1250.823393	1528.451677	-160.4625222	1372.830513	1532.746988	163.6853836	1386.073529	1638.48205	-9.995724821	1621.709144	1614.581794	-119.563877	909.7538617	1619.377815	121.1976851	901.5908312	1437.114792	-5.695750883	934.7380386	1600.973742	-151.852957	658.6985128	1659.261577	-72.89581202	620.4974824	1616.045618	-144.0380039	559.2788256	1600.797685	-128.7803171	482.6669555	1602.637942	-28.27664901	468.8868813	1562.99995	-139.9773559	426.3971407	1593.607046	-92.759033	361.4281788	1526.426911	-148.0192813	360.7301554	1369.93199	-126.2596959	168.947034	1383.162122	-48.83628676	174.3287937	1311.061434	-81.79932302	195.1725062	1413.442174	-50.48617332	118.9968921	1398.389354	-145.6838404	108.8805156	1444.169494	-153.7519611	40.55147214	1453.363362	-57.55224411	47.91769625	1494.323363	-85.7250635	12.63455166	1560.062994	155.8898652	656.6968314	1627.515111	93.1736068	627.6008655	1559.250185	143.1256019	566.2328718	1546.097975	130.2344758	457.119423	1547.062086	33.90932835	457.7892801	1540.39803	146.028905	387.4174298	1572.974203	97.96343807	339.6457313	1520.878866	155.397025	352.1712785	1501.463039	125.837295	80.30586084	1507.48648	46.58044596	99.9102473	1431.105407	79.29350631	67.86958037	1584.018516	55.87355549	69.14016974	1567.707993	143.3687015	69.25104526	1623.687426	152.6622596	48.24983614	1638.806236	62.03409965	48.12911006	1682.457042	84.48225282	48.56869519
	22	0.44167	1642.77936	-0.000992919	1250.576749	1534.129971	-160.4625222	1372.743425	1538.44471	163.6853836	1385.980123	1644.525411	-9.995724821	1621.460337	1619.630187	-119.563877	909.6360841	1624.421307	121.1976851	901.470176	1442.178215	-5.695750883	934.7267923	1608.604277	-151.852957	660.0011994	1667.489782	-72.89581202	622.7280501	1625.248748	-144.0380039	560.83267	1611.21601	-128.7803171	483.98893	1613.274268	-28.27664901	470.2397276	1574.533962	-139.9773559	426.7277719	1606.864177	-92.759033	362.5988591	1539.726606	-148.0192813	360.1080445	1388.406132	-126.2596959	164.2163901	1401.487912	-48.83628676	169.9493452	1328.503026	-81.79932302	187.8361812	1434.005163	-50.48617332	116.0459365	1419.392363	-145.6838404	105.3037523	1468.013348	-153.7519611	38.96613698	1476.888388	-57.55224411	46.71353165	1519.29991	-85.7250635	13.1891415	1563.889806	155.8898652	656.3391426	1631.138756	93.1736068	626.7766309	1562.450369	143.1256019	565.8829837	1548.542641	130.2344758	456.8632588	1549.511368	33.90932835	457.5264213	1542.401347	146.028905	387.2018671	1574.685004	97.96343807	339.2320043	1522.667176	155.397025	352.0756454	1501.590482	125.837295	80.33394335	1507.733603	46.58044596	99.90115768	1431.261363	79.29350631	67.88090864	1584.1738	55.87355549	69.22998828	1567.863222	143.3687015	69.33249158	1623.853427	152.6622596	48.36001952	1638.972297	62.03409965	48.24705396	1682.622872	84.48225282	48.70904503
	23	0.45	1648.287603	-0.000992919	1250.291012	1539.817512	-160.4625222	1372.61691	1544.151659	163.6853836	1385.847266	1650.577621	-9.995724821	1621.171641	1624.686297	-119.563877	909.4763086	1629.472257	121.1976851	901.3073753	1447.250211	-5.695750883	934.6791169	1616.15294	-151.852957	661.2709027	1675.606934	-72.89581202	624.9114065	1634.326618	-144.0380039	562.3711907	1621.482044	-128.7803171	485.3199414	1623.752348	-28.27664901	471.6041581	1585.953708	-139.9773559	427.0462538	1620.061448	-92.759033	363.844811	1553.019569	-148.0192813	359.4808589	1407.226269	-126.2596959	159.4415131	1420.142919	-48.83628676	165.5374048	1346.412872	-81.79932302	180.4594258	1454.812057	-50.48617332	113.1232795	1440.659102	-145.6838404	101.7821018	1491.999459	-153.7519611	37.52599599	1500.544295	-57.55224411	45.63612728	1544.314616	-85.7250635	13.90631418	1567.698683	155.8898652	655.9455695	1634.737517	93.1736068	625.9096233	1565.621479	143.1256019	565.5018086	1550.945404	130.2344758	456.5828565	1551.918783	33.90932835	457.2391721	1544.363319	146.028905	386.9655216	1576.355727	97.96343807	338.8009284	1524.416675	155.397025	351.9595167	1501.69385	125.837295	80.35050939	1507.955418	46.58044596	99.88014255	1431.391565	79.29350631	67.88740165	1584.303435	55.87355549	69.29920475	1567.992816	143.3687015	69.39501755	1623.99162	152.6622596	48.44551404	1639.110535	62.03409965	48.33875013	1682.760916	84.48225282	48.81864631
	24	0.45833	1653.8041	-0.000992919	1249.96829	1545.512053	-160.4625222	1372.451836	1549.865441	163.6853836	1385.675874	1656.633584	-9.995724821	1620.845196	1629.753842	-119.563877	909.2776139	1634.53457	121.1976851	901.1056175	1452.333931	-5.695750883	934.5940407	1623.621221	-151.852957	662.5021757	1683.614347	-72.89581202	627.0393049	1643.277542	-144.0380039	563.8864331	1631.591115	-128.7803171	486.6510428	1634.067066	-28.27664901	472.9708871	1597.254012	-139.9773559	427.3499264	1633.18151	-92.759033	365.1649189	1566.29451	-148.0192813	358.8572304	1426.367814	-126.2596959	154.6711739	1439.102119	-48.83628676	161.139343	1364.762675	-81.79932302	173.0952048	1475.837743	-50.48617332	110.2710901	1462.162861	-145.6838404	98.35781753	1516.100723	-153.7519611	36.26605969	1524.305019	-57.55224411	44.72052572	1569.342431	-85.7250635	14.8164543	1571.488647	155.8898652	655.5158557	1638.309071	93.1736068	624.9971033	1568.759076	143.1256019	565.089432	1553.297691	130.2344758	456.2791803	1554.275779	33.90932835	456.9284573	1546.276959	146.028905	386.7095274	1577.981593	97.96343807	338.3550197	1526.12193	155.397025	351.8230867	1501.779904	125.837295	80.3544045	1508.157815	46.58044596	99.84635271	1431.502311	79.29350631	67.88904761	1584.413768	55.87355549	69.34492477	1568.103122	143.3687015	69.43603633	1624.107961	152.6622596	48.50267434	1639.226907	62.03409965	48.4002682	1682.877148	84.48225282	48.8927458
